<svg xmlns="http://www.w3.org/2000/svg" version="1.1" xmlns:xlink="http://www.w3.org/1999/xlink" xmlns:svgjs="http://svgjs.dev/svgjs" width="2000" height="469" viewBox="0 0 2000 469"><g transform="matrix(1,0,0,1,-1.2121212121213603,0.510379064351099)"><svg viewBox="0 0 396 93" data-background-color="#ffffff" preserveAspectRatio="xMidYMid meet" height="469" width="2000" xmlns="http://www.w3.org/2000/svg" xmlns:xlink="http://www.w3.org/1999/xlink"><g id="tight-bounds" transform="matrix(1,0,0,1,0.24000000000003752,-0.10120523024446015)"><svg viewBox="0 0 395.5199999999999 93.2024104604889" height="93.2024104604889" width="395.5199999999999"><g><svg viewBox="0 0 395.5199999999999 93.2024104604889" height="93.2024104604889" width="395.5199999999999"><g><svg viewBox="0 0 395.5199999999999 93.2024104604889" height="93.2024104604889" width="395.5199999999999"><g id="textblocktransform"><svg viewBox="0 0 395.5199999999999 93.2024104604889" height="93.2024104604889" width="395.5199999999999" id="textblock"><g><svg viewBox="0 0 395.5199999999999 93.2024104604889" height="93.2024104604889" width="395.5199999999999"><g transform="matrix(1,0,0,1,0,0)"><svg width="395.5199999999999" viewBox="3.18 -31.95 175.88 41.45" height="93.2024104604889" data-palette-color="#ffffff"><path d="M16.1-9.6L16.1-9.6 7.55-9.6 7.55-14.95 15.7-14.95Q18.4-14.95 19.61-16.21 20.83-17.48 20.83-19.88L20.83-19.88 20.83-21.7Q20.83-24.15 19.63-25.39 18.43-26.63 15.73-26.63L15.73-26.63 7.55-26.63 7.55-31.95 16.1-31.95Q21.93-31.95 24.64-29.33 27.35-26.7 27.35-21.88L27.35-21.88 27.35-19.68Q27.35-14.85 24.64-12.23 21.93-9.6 16.1-9.6ZM9.65-10.45L9.65 0 3.18 0 3.18-31.95 9.63-31.95 9.63-13.43 9.65-10.45ZM38.02-14.25L38.02-14.25 36.4-18.53 37.95-18.53Q38.62-21.5 40.4-23.2 42.17-24.9 45.32-24.9L45.32-24.9Q45.97-24.9 46.5-24.81 47.02-24.73 47.45-24.6L47.45-24.6 47.8-18.2Q47.25-18.38 46.52-18.46 45.8-18.55 45-18.55L45-18.55Q42.45-18.55 40.66-17.43 38.87-16.3 38.02-14.25ZM38.2-16.78L38.2 0 31.8 0 31.8-24.53 37.9-24.53 37.62-17 38.2-16.78ZM71.7-15.15L71.7 0 65.37 0 65.59-6 65.42-6.55 65.42-14.23 65.4-15.33Q65.4-17.73 64.08-18.85 62.77-19.98 59.8-19.98L59.8-19.98Q57.27-19.98 55.06-19.31 52.85-18.65 50.97-17.78L50.97-17.78 51.52-22.88Q52.62-23.45 54.03-23.96 55.45-24.48 57.2-24.8 58.95-25.13 60.97-25.13L60.97-25.13Q63.97-25.13 66.05-24.41 68.12-23.7 69.36-22.38 70.59-21.05 71.15-19.21 71.7-17.38 71.7-15.15L71.7-15.15ZM57.35 0.58L57.35 0.58Q53.7 0.58 51.78-1.25 49.87-3.08 49.87-6.45L49.87-6.45 49.87-7.15Q49.87-10.73 52.07-12.44 54.27-14.15 59.05-14.8L59.05-14.8 66-15.75 66.37-11.63 59.97-10.7Q57.87-10.43 56.98-9.7 56.1-8.97 56.1-7.58L56.1-7.58 56.1-7.33Q56.1-5.95 56.96-5.19 57.82-4.42 59.67-4.42L59.67-4.42Q61.32-4.42 62.5-4.95 63.67-5.48 64.43-6.34 65.2-7.2 65.52-8.28L65.52-8.28 66.42-5.1 65.32-5.1Q64.92-3.53 64.03-2.24 63.15-0.95 61.55-0.19 59.95 0.58 57.35 0.58ZM87.34-7.53L87.34-7.53Q81.77-7.53 78.89-9.74 76.02-11.95 76.02-15.95L76.02-15.95 76.02-16.32Q76.02-18.98 77.17-20.84 78.32-22.7 80.77-23.75 83.22-24.8 87.12-24.95L87.12-24.95 100.04-25.48 100.04-20.78 93.39-21.03 93.39-20.75Q94.97-20.43 96.01-19.71 97.04-19 97.57-17.89 98.09-16.78 98.09-15.2L98.09-15.2 98.09-14.98Q98.09-11.35 95.42-9.44 92.74-7.53 87.34-7.53ZM87.04 4.67L87.04 4.67 87.74 4.67Q89.69 4.67 90.97 4.41 92.24 4.15 92.88 3.61 93.52 3.08 93.52 2.23L93.52 2.23 93.52 2.15Q93.52 1.1 92.71 0.61 91.89 0.13 90.09-0.05L90.09-0.05 82.92-0.75 84.39-0.83Q83.47-0.65 82.76-0.31 82.04 0.03 81.64 0.58 81.24 1.13 81.24 1.93L81.24 1.93 81.24 1.98Q81.24 2.9 81.89 3.51 82.54 4.13 83.84 4.4 85.14 4.67 87.04 4.67ZM87.59 9.5L87.59 9.5 86.69 9.5Q83.14 9.5 80.62 8.91 78.09 8.33 76.76 7.05 75.42 5.78 75.42 3.68L75.42 3.68 75.42 3.58Q75.42 2.15 76.04 1.18 76.67 0.2 77.82-0.38 78.97-0.95 80.47-1.1L80.47-1.1 80.47-1.35Q78.57-1.73 77.61-2.59 76.64-3.45 76.64-4.95L76.64-4.95 76.64-4.98Q76.64-6.03 77.12-6.75 77.59-7.48 78.53-7.9 79.47-8.33 80.84-8.4L80.84-8.4 80.84-9.13 86.27-7.78 84.52-7.83Q83.37-7.8 82.92-7.51 82.47-7.23 82.47-6.7L82.47-6.7 82.47-6.68Q82.47-6.03 83.17-5.74 83.87-5.45 85.49-5.25L85.49-5.25 91.37-4.6Q95.49-4.13 97.46-2.58 99.42-1.03 99.42 2.2L99.42 2.2 99.42 2.33Q99.42 4.8 98.02 6.39 96.62 7.98 93.98 8.74 91.34 9.5 87.59 9.5ZM87.17-11.98L87.17-11.98Q88.84-11.98 89.96-12.45 91.07-12.93 91.63-13.85 92.19-14.78 92.19-16.1L92.19-16.1 92.19-16.38Q92.19-17.7 91.64-18.61 91.09-19.53 89.99-19.99 88.89-20.45 87.22-20.45L87.22-20.45 87.14-20.45Q85.37-20.45 84.24-19.96 83.12-19.48 82.59-18.56 82.07-17.65 82.07-16.38L82.07-16.38 82.07-16.1Q82.07-14.78 82.63-13.85 83.19-12.93 84.33-12.45 85.47-11.98 87.17-11.98ZM125.57-15.65L125.57 0 119.17 0 119.17-14.73Q119.17-16.28 118.75-17.4 118.34-18.53 117.39-19.15 116.44-19.78 114.79-19.78L114.79-19.78Q113.34-19.78 112.25-19.25 111.17-18.73 110.48-17.84 109.79-16.95 109.44-15.83L109.44-15.83 108.44-19.33 109.64-19.33Q110.04-20.95 110.98-22.25 111.92-23.55 113.53-24.31 115.14-25.08 117.57-25.08L117.57-25.08Q120.39-25.08 122.14-24.01 123.89-22.95 124.73-20.85 125.57-18.75 125.57-15.65L125.57-15.65ZM109.59-18.03L109.59 0 103.19 0 103.19-24.53 109.59-24.53 109.34-18.55 109.59-18.03ZM151.44-15.15L151.44 0 145.11 0 145.34-6 145.16-6.55 145.16-14.23 145.14-15.33Q145.14-17.73 143.83-18.85 142.51-19.98 139.54-19.98L139.54-19.98Q137.01-19.98 134.8-19.31 132.59-18.65 130.71-17.78L130.71-17.78 131.26-22.88Q132.36-23.45 133.78-23.96 135.19-24.48 136.94-24.8 138.69-25.13 140.71-25.13L140.71-25.13Q143.71-25.13 145.79-24.41 147.86-23.7 149.1-22.38 150.34-21.05 150.89-19.21 151.44-17.38 151.44-15.15L151.44-15.15ZM137.09 0.58L137.09 0.58Q133.44 0.58 131.53-1.25 129.61-3.08 129.61-6.45L129.61-6.45 129.61-7.15Q129.61-10.73 131.81-12.44 134.01-14.15 138.79-14.8L138.79-14.8 145.74-15.75 146.11-11.63 139.71-10.7Q137.61-10.43 136.73-9.7 135.84-8.97 135.84-7.58L135.84-7.58 135.84-7.33Q135.84-5.95 136.7-5.19 137.56-4.42 139.41-4.42L139.41-4.42Q141.06-4.42 142.24-4.95 143.41-5.48 144.18-6.34 144.94-7.2 145.26-8.28L145.26-8.28 146.16-5.1 145.06-5.1Q144.66-3.53 143.78-2.24 142.89-0.95 141.29-0.19 139.69 0.58 137.09 0.58ZM179.06-15.65L179.06 0 172.66 0 172.66-14.73Q172.66-16.28 172.25-17.4 171.84-18.53 170.89-19.15 169.94-19.78 168.29-19.78L168.29-19.78Q166.84-19.78 165.75-19.25 164.66-18.73 163.97-17.84 163.29-16.95 162.94-15.83L162.94-15.83 161.94-19.33 163.14-19.33Q163.54-20.95 164.47-22.25 165.41-23.55 167.02-24.31 168.64-25.08 171.06-25.08L171.06-25.08Q173.89-25.08 175.64-24.01 177.39-22.95 178.22-20.85 179.06-18.75 179.06-15.65L179.06-15.65ZM163.09-18.03L163.09 0 156.69 0 156.69-24.53 163.09-24.53 162.84-18.55 163.09-18.03Z" opacity="1" transform="matrix(1,0,0,1,0,0)" fill="#ffffff" class="wordmark-text-0" data-fill-palette-color="primary" id="text-0"></path></svg></g></svg></g></svg></g></svg></g></svg></g><defs></defs></svg><rect width="395.5199999999999" height="93.2024104604889" fill="none" stroke="none" visibility="hidden"></rect></g></svg></g></svg>